<svg width="24" height="24" viewBox="0 0 24 24" fill="#292D32" xmlns="http://www.w3.org/2000/svg">
<path d="M18.2377 5.24404C17.0902 4.66908 15.8602 4.24411 14.574 4.00246C14.5626 4.00002 14.5507 4.00159 14.5401 4.00696C14.5295 4.01234 14.5206 4.02125 14.5148 4.03246C14.3573 4.33994 14.1818 4.74074 14.0588 5.05739C12.6947 4.83093 11.3078 4.83093 9.94366 5.05739C9.80666 4.70646 9.65218 4.36429 9.48092 4.03246C9.47512 4.02111 9.46634 4.012 9.45575 4.00634C9.44516 4.00068 9.43328 3.99875 9.42167 4.00079C8.13621 4.24244 6.90625 4.66741 5.75803 5.24321C5.74815 5.24781 5.73978 5.25566 5.73403 5.26571C3.4001 9.07796 2.76037 12.796 3.07461 16.4675C3.07548 16.4765 3.07799 16.4852 3.08199 16.493C3.08599 16.5009 3.09139 16.5078 3.09786 16.5133C4.46011 17.6153 5.97953 18.4547 7.59248 18.9965C7.60372 19.0003 7.61575 19.0003 7.62699 18.9964C7.63822 18.9926 7.64815 18.985 7.65548 18.9748C8.00197 18.4582 8.31096 17.9124 8.57495 17.3391C8.5907 17.3058 8.5757 17.2658 8.5442 17.2524C8.05972 17.0497 7.59029 16.8051 7.14024 16.5208C7.13215 16.5157 7.12534 16.5084 7.12041 16.4996C7.11548 16.4908 7.11259 16.4808 7.11199 16.4705C7.1114 16.4602 7.11312 16.4499 7.117 16.4405C7.12088 16.4311 7.12681 16.4229 7.13424 16.4166C7.22874 16.3391 7.32324 16.2583 7.41323 16.1775C7.42133 16.1702 7.43109 16.1656 7.44142 16.1641C7.45175 16.1627 7.46224 16.1644 7.47173 16.1692C10.4169 17.6391 13.6066 17.6391 16.5172 16.1692C16.5267 16.1641 16.5373 16.1621 16.5478 16.1635C16.5583 16.1648 16.5682 16.1694 16.5765 16.1767C16.6665 16.2583 16.7602 16.3391 16.8555 16.4166C16.863 16.4227 16.869 16.4308 16.873 16.4401C16.877 16.4495 16.8789 16.4597 16.8784 16.4701C16.878 16.4804 16.8752 16.4904 16.8704 16.4993C16.8656 16.5081 16.859 16.5155 16.851 16.5208C16.4025 16.8074 15.936 17.0499 15.4462 17.2516C15.4387 17.2546 15.4319 17.2594 15.4262 17.2656C15.4204 17.2718 15.416 17.2793 15.413 17.2876C15.4101 17.2959 15.4089 17.3048 15.4093 17.3136C15.4097 17.3225 15.4118 17.3312 15.4155 17.3391C15.6855 17.9115 15.9945 18.4565 16.3342 18.974C16.3413 18.9846 16.3511 18.9925 16.3624 18.9967C16.3737 19.0009 16.3858 19.0011 16.3972 18.9973C18.0129 18.457 19.5348 17.6172 20.8986 16.5133C20.9052 16.5081 20.9108 16.5014 20.915 16.4937C20.9191 16.4859 20.9217 16.4773 20.9226 16.4683C21.2976 12.2236 20.2941 8.53549 18.2609 5.26738C18.2559 5.25675 18.2477 5.24848 18.2377 5.24404ZM9.01519 14.2318C8.12871 14.2318 7.39748 13.341 7.39748 12.2486C7.39748 11.1553 8.11446 10.2654 9.01519 10.2654C9.92266 10.2654 10.6471 11.1628 10.6329 12.2486C10.6329 13.3418 9.91591 14.2318 9.01519 14.2318V14.2318ZM14.9963 14.2318C14.109 14.2318 13.3786 13.341 13.3786 12.2486C13.3786 11.1553 14.0948 10.2654 14.9963 10.2654C15.9037 10.2654 16.6282 11.1628 16.614 12.2486C16.614 13.3418 15.9045 14.2318 14.9963 14.2318V14.2318Z"/>
</svg>
