<svg width="24" height="24" viewBox="0 0 24 24" fill="#292D32" xmlns="http://www.w3.org/2000/svg">
<path fill-rule="evenodd" clip-rule="evenodd" d="M12 7.67004C9.6058 7.67004 7.67001 9.60583 7.67001 12C7.67001 14.3943 9.6058 16.33 12 16.33C14.3942 16.33 16.33 14.3943 16.33 12C16.33 9.60583 14.3942 7.67004 12 7.67004ZM9.17001 12C9.17001 10.4343 10.4342 9.17004 12 9.17004C13.5658 9.17004 14.83 10.4343 14.83 12C14.83 13.5658 13.5658 14.83 12 14.83C10.4342 14.83 9.17001 13.5658 9.17001 12Z"/>
<path fill-rule="evenodd" clip-rule="evenodd" d="M12 2.96997C8.15202 2.96997 4.64841 5.23857 2.25749 8.99693C1.71229 9.85135 1.465 10.9459 1.465 11.995C1.465 13.0438 1.7122 14.1382 2.25718 14.9925C4.6481 18.7512 8.15185 21.02 12 21.02C15.8481 21.02 19.3519 18.7512 21.7428 14.9925C22.2878 14.1382 22.535 13.0438 22.535 11.995C22.535 10.9461 22.2878 9.85177 21.7428 8.99743C19.3519 5.23877 15.8481 2.96997 12 2.96997ZM3.52281 9.80251C5.71189 6.36117 8.78814 4.46997 12 4.46997C15.2118 4.46997 18.2881 6.36117 20.4772 9.80251L20.4778 9.8035C20.8324 10.359 21.035 11.1542 21.035 11.995C21.035 12.8357 20.8324 13.6309 20.4778 14.1864L20.4772 14.1874C18.2881 17.6288 15.2118 19.52 12 19.52C8.78814 19.52 5.71189 17.6288 3.52282 14.1874L3.52219 14.1864C3.1676 13.6309 2.965 12.8357 2.965 11.995C2.965 11.1542 3.1676 10.359 3.52219 9.8035L3.52281 9.80251Z"/>
</svg>
