<svg width="24" height="24" viewBox="0 0 24 24" fill="#5B4DFF" xmlns="http://www.w3.org/2000/svg">
<path d="M7.64105 0H12C17.514 0 22 4.46696 22 9.95752C22 15.4481 17.514 19.915 12 19.915C10.4762 19.915 8.99224 19.5739 7.64105 18.921V19.915H6.10258V9.70216H7.64105V9.95744C7.64105 12.3507 9.59649 14.2978 12 14.2978C14.4035 14.2978 16.359 12.3507 16.359 9.95744C16.359 7.56416 14.4035 5.61704 12 5.61704H3.53847V24H2V4.08512H12C15.2518 4.08512 17.8974 6.71944 17.8974 9.95744C17.8974 13.1954 15.2518 15.8298 12 15.8298C10.2749 15.8298 8.72044 15.0883 7.64105 13.9087V14.6379C8.82987 15.738 10.3659 16.3404 12 16.3404C15.5346 16.3404 18.4102 13.477 18.4102 9.95744C18.4102 6.43792 15.5346 3.57448 12 3.57448H5.58976V2.04256H12C16.383 2.04256 19.9487 5.59312 19.9487 9.95744C19.9487 14.3218 16.383 17.8723 12 17.8723C10.4252 17.8723 8.92395 17.4207 7.64105 16.5793V17.1788C8.95448 17.9671 10.4527 18.383 12 18.383C16.6657 18.383 20.4615 14.6033 20.4615 9.95744C20.4615 5.3116 16.6657 1.53192 12 1.53192H7.64105V0Z M4.03895 7.73071H5.56818V22.1611H4.03895V7.73071Z"/>
</svg>
