<svg width="24" height="24" viewBox="0 0 24 24" fill="#FFA959" xmlns="http://www.w3.org/2000/svg">
<path d="M5.25 9C5.25 9.41 5.59 9.75 6 9.75C6.41 9.75 6.75 9.41 6.75 9V2C6.75 1.59 6.41 1.25 6 1.25C5.59 1.25 5.25 1.59 5.25 2V9Z"/>
<path d="M14.62 10.7501L13.3 8.11007C12.59 6.68007 11.41 6.68007 10.7 8.12007L9.38003 10.7601C9.20003 11.1201 8.72003 11.4701 8.32003 11.5401L5.93003 11.9401C4.40003 12.1901 4.04003 13.3001 5.14003 14.4001L6.99003 16.2501C7.30003 16.5701 7.48003 17.1801 7.38003 17.6101L6.85003 19.9201C6.43003 21.7401 7.40003 22.4501 9.01003 21.5001L11.26 20.1801C11.67 19.9401 12.33 19.9401 12.74 20.1801L14.98 21.5101C16.59 22.4601 17.56 21.7501 17.14 19.9301L16.61 17.6201C16.51 17.1801 16.69 16.5701 17 16.2601L18.86 14.3901C19.96 13.2901 19.6 12.1901 18.07 11.9301L15.68 11.5301C15.28 11.4701 14.8 11.1101 14.62 10.7501Z"/>
<path d="M18 9.75C17.59 9.75 17.25 9.41 17.25 9V2C17.25 1.59 17.59 1.25 18 1.25C18.41 1.25 18.75 1.59 18.75 2V9C18.75 9.41 18.41 9.75 18 9.75Z"/>
<path d="M11.25 4C11.25 4.41 11.59 4.75 12 4.75C12.41 4.75 12.75 4.41 12.75 4V2C12.75 1.59 12.41 1.25 12 1.25C11.59 1.25 11.25 1.59 11.25 2V4Z"/>
</svg>
