<svg width="24" height="24" viewBox="0 0 24 24" fill="#292D32" xmlns="http://www.w3.org/2000/svg">
<path d="M20 5.77927C19.3748 6.07995 18.7033 6.28311 17.9972 6.37493C18.7257 5.90181 19.2707 5.15718 19.5306 4.27997C18.8461 4.72122 18.0971 5.03181 17.3159 5.19824C16.7906 4.58947 16.0948 4.18597 15.3366 4.05038C14.5784 3.91479 13.8001 4.0547 13.1226 4.44839C12.4451 4.84208 11.9064 5.46752 11.59 6.22761C11.2735 6.9877 11.1972 7.83991 11.3727 8.65193C9.98589 8.57635 8.6292 8.18511 7.3907 7.5036C6.1522 6.82209 5.05956 5.86554 4.1837 4.69603C3.88422 5.25675 3.71201 5.90686 3.71201 6.59922C3.71168 7.22251 3.85309 7.83624 4.12371 8.38598C4.39432 8.93572 4.78577 9.40446 5.26332 9.75061C4.70949 9.73148 4.16788 9.56905 3.68356 9.27684V9.3256C3.68351 10.1998 3.9621 11.0471 4.47208 11.7237C4.98206 12.4003 5.69201 12.8646 6.48146 13.0377C5.96769 13.1886 5.42904 13.2109 4.90619 13.1027C5.12893 13.8549 5.5628 14.5127 6.14706 14.9839C6.73133 15.4551 7.43674 15.7163 8.16454 15.7308C6.92906 16.7835 5.40325 17.3545 3.83256 17.352C3.55432 17.3521 3.27633 17.3344 3 17.2992C4.59434 18.4118 6.45027 19.0023 8.34572 19C14.7621 19 18.2698 13.2319 18.2698 8.22936C18.2698 8.06683 18.266 7.90268 18.2593 7.74016C18.9416 7.20461 19.5305 6.54144 19.9985 5.78171L20 5.77927V5.77927Z"/>
</svg>
