<svg width="24" height="22" viewBox="0 0 24 22" fill="#292D32" xmlns="http://www.w3.org/2000/svg">
<path fill-rule="evenodd" clip-rule="evenodd" d="M23.0039 2.05554C23.3107 1.77727 23.3338 1.30296 23.0555 0.996144C22.7773 0.689328 22.303 0.666191 21.9961 0.944466L18.3675 4.23561C16.4774 2.78064 14.3002 1.96997 12 1.96997C8.15202 1.96997 4.64841 4.23857 2.25749 7.99693C1.71229 8.85135 1.465 9.94593 1.465 10.995C1.465 12.0438 1.7122 13.1382 2.25718 13.9925C2.92971 15.0498 3.69028 15.9891 4.5218 16.7933L0.496144 20.4445C0.189328 20.7227 0.166191 21.1971 0.444466 21.5039C0.722741 21.8107 1.19705 21.8338 1.50387 21.5555L5.66635 17.7803C7.5485 19.2189 9.71345 20.02 12 20.02C15.8481 20.02 19.3519 17.7512 21.7428 13.9925C22.2878 13.1382 22.535 12.0438 22.535 10.995C22.535 9.94613 22.2878 8.85177 21.7428 7.99743C21.0784 6.95297 20.3281 6.02356 19.5083 5.2259L23.0039 2.05554ZM17.2364 5.26145C15.629 4.08839 13.8366 3.46997 12 3.46997C8.78814 3.46997 5.71189 5.36117 3.52281 8.80251L3.52219 8.8035C3.1676 9.35901 2.965 10.1542 2.965 10.995C2.965 11.8357 3.1676 12.6309 3.52219 13.1864L3.52282 13.1874C4.15819 14.1863 4.8683 15.0545 5.63478 15.7838L8.3453 13.3255C7.91764 12.654 7.67001 11.8564 7.67001 11C7.67001 8.60583 9.6058 6.67004 12 6.67004C13.008 6.67004 13.9347 7.01316 14.67 7.58915L17.2364 5.26145ZM15.6734 8.70414L18.3956 6.23512C19.1505 6.95842 19.8502 7.81689 20.4772 8.80251L20.4778 8.8035C20.8324 9.35901 21.035 10.1542 21.035 10.995C21.035 11.8357 20.8324 12.6309 20.4778 13.1864L20.4772 13.1874C18.2881 16.6288 15.2118 18.52 12 18.52C10.1765 18.52 8.39676 17.9104 6.79824 16.7537L9.35763 14.4324C10.0884 14.9954 11.0046 15.33 12 15.33C14.3942 15.33 16.33 13.3943 16.33 11C16.33 10.1562 16.0896 9.36939 15.6734 8.70414ZM13.5337 8.61973C13.0921 8.33507 12.5657 8.17004 12 8.17004C10.4342 8.17004 9.17001 9.43426 9.17001 11C9.17001 11.4669 9.28242 11.907 9.48171 12.2948L13.5337 8.61973ZM10.4964 13.3995L14.5344 9.73714C14.7236 10.1171 14.83 10.5459 14.83 11C14.83 12.5658 13.5658 13.83 12 13.83C11.4471 13.83 10.9318 13.6724 10.4964 13.3995Z"/>
</svg>
